<?xml version="1.0" standalone="no"?><!DOCTYPE svg PUBLIC "-//W3C//DTD SVG 1.1//EN" "http://www.w3.org/Graphics/SVG/1.1/DTD/svg11.dtd"><svg t="1630245617509" class="icon" viewBox="0 0 1024 1024" version="1.1" xmlns="http://www.w3.org/2000/svg" p-id="9333" xmlns:xlink="http://www.w3.org/1999/xlink" width="200" height="200"><defs><style type="text/css"></style></defs><path d="M864 832a32 32 0 0 1 0 64H160a32 32 0 0 1 0-64h704zM576 288a32 32 0 0 1 32 32v416a32 32 0 0 1-32 32h-128a32 32 0 0 1-32-32V320a32 32 0 0 1 32-32h128z m-256 160a32 32 0 0 1 32 32v256a32 32 0 0 1-32 32H192a32 32 0 0 1-32-32v-256a32 32 0 0 1 32-32h128zM832 128a32 32 0 0 1 32 32v576a32 32 0 0 1-32 32h-128a32 32 0 0 1-32-32V160a32 32 0 0 1 32-32h128z" p-id="9334" fill="#515151"></path></svg>